<svg xmlns="http://www.w3.org/2000/svg" width="900" height="800" xml:space="preserve"><rect width="100%" height="100%" fill="transparent"/><path style="stroke:none;stroke-width:1;stroke-dasharray:none;stroke-linecap:butt;stroke-dashoffset:0;stroke-linejoin:miter;stroke-miterlimit:4;fill:#ffb8b8;fill-rule:nonzero;opacity:1" vector-effect="non-scaling-stroke" d="M10.39 27.15H-3.69l-6.7-54.3h20.78v54.3z" transform="matrix(1.28 0 0 1.28 788.42 719.08)"/><path style="stroke:none;stroke-width:1;stroke-dasharray:none;stroke-linecap:butt;stroke-dashoffset:0;stroke-linejoin:miter;stroke-miterlimit:4;fill:#2f2e41;fill-rule:nonzero;opacity:1" vector-effect="non-scaling-stroke" transform="matrix(1.28 0 0 1.28 -378.994 -180.072)" d="M926.003 743.34h-45.399v-.575c.001-9.759 7.912-17.67 17.671-17.67H926.004Z"/><path style="stroke:none;stroke-width:1;stroke-dasharray:none;stroke-linecap:butt;stroke-dashoffset:0;stroke-linejoin:miter;stroke-miterlimit:4;fill:#ffb8b8;fill-rule:nonzero;opacity:1" vector-effect="non-scaling-stroke" d="m27.4 12.27-9.14 10.71L-27.4-7.17l13.49-15.81L27.4 12.27z" transform="matrix(1.28 0 0 1.28 846.33 693.76)"/><path style="stroke:none;stroke-width:1;stroke-dasharray:none;stroke-linecap:butt;stroke-dashoffset:0;stroke-linejoin:miter;stroke-miterlimit:4;fill:#2f2e41;fill-rule:nonzero;opacity:1" vector-effect="non-scaling-stroke" transform="matrix(1.28 0 0 1.28 -378.749 -180.134)" d="m997.267 701.206-29.469 34.534-.437-.373c-7.423-6.334-8.306-17.487-1.972-24.911v-.001l18-21.093Z"/><path style="stroke:none;stroke-width:1;stroke-dasharray:none;stroke-linecap:butt;stroke-dashoffset:0;stroke-linejoin:miter;stroke-miterlimit:4;fill:#2f2e41;fill-rule:nonzero;opacity:1" vector-effect="non-scaling-stroke" d="m-84.2 24.92-4.39 40.42 177.18-2.52-77.27-125.9-63.09-2.26-32.43 90.26z" transform="matrix(1.28 0 0 1.28 781.51 379.21)"/><path style="stroke:none;stroke-width:1;stroke-dasharray:none;stroke-linecap:butt;stroke-dashoffset:0;stroke-linejoin:miter;stroke-miterlimit:4;fill:#000;fill-rule:nonzero;opacity:.28" vector-effect="non-scaling-stroke" d="m-84.2 24.92-4.39 40.42 177.18-2.52-77.27-125.9-63.09-2.26-32.43 90.26z" transform="matrix(1.28 0 0 1.28 781.51 379.21)"/><path style="stroke:none;stroke-width:1;stroke-dasharray:none;stroke-linecap:butt;stroke-dashoffset:0;stroke-linejoin:miter;stroke-miterlimit:4;fill:#2f2e41;fill-rule:nonzero;opacity:1" vector-effect="non-scaling-stroke" transform="matrix(1.28 0 0 1.28 -379.036 -180.554)" d="m857.28 469.556-6.255 36.984v33.058l50.43 16.462s-5.904 128.404 1.967 136.582l-.194 19.743 22 1 .18-13.894 9.327-103.856 5.493-76.25-8.906-57.811Z"/><path style="stroke:none;stroke-width:1;stroke-dasharray:none;stroke-linecap:butt;stroke-dashoffset:0;stroke-linejoin:miter;stroke-miterlimit:4;fill:#2f2e41;fill-rule:nonzero;opacity:1" vector-effect="non-scaling-stroke" transform="matrix(1.28 0 0 1.28 -378.974 -180.512)" d="m896.35 501.392-45.325 38.206s-2.653 68.932 4.084 77.016c5.786 6.943 81.037 66.832 81.037 66.832s13.375 12.268 20.87 12.463c7.495.196 16.212-15.524 16.212-15.524l-17.358-13.189s-44.969-41.976-58.321-58.666c-5.39-6.736-5.39-7.41-5.39-7.41L894 573.106l18.525-51.992Z"/><path style="stroke:none;stroke-width:1;stroke-dasharray:none;stroke-linecap:butt;stroke-dashoffset:0;stroke-linejoin:miter;stroke-miterlimit:4;fill:#2f2e41;fill-rule:nonzero;opacity:1" vector-effect="non-scaling-stroke" d="M39-21.69 19.46-23.5 1.73-20.55l-37.53.02-3.2 27.2 34.25 7.66 8.35-4.09L38.39 23.5 39-21.69z" transform="matrix(1.28 0 0 1.28 656.5 253.94)"/><path style="stroke:none;stroke-width:1;stroke-dasharray:none;stroke-linecap:butt;stroke-dashoffset:0;stroke-linejoin:miter;stroke-miterlimit:4;fill:#ccc;fill-rule:nonzero;opacity:1" vector-effect="non-scaling-stroke" transform="matrix(1.28 0 0 1.28 -378.994 -181.169)" d="M871.57 318.3s41.473-3.886 50.904 3.524c9.431 7.41 29.64 154.266 29.64 154.266l-80.545 4.546-14.44-9.935 4.1-73.316Z"/><path style="stroke:none;stroke-width:1;stroke-dasharray:none;stroke-linecap:butt;stroke-dashoffset:0;stroke-linejoin:miter;stroke-miterlimit:4;fill:#2f2e41;fill-rule:nonzero;opacity:1" vector-effect="non-scaling-stroke" d="m44.2-100.57-45.75 1L-44.2 93.16l33.68 7.41L44.2-100.57z" transform="matrix(1.28 0 0 1.28 696.02 353.88)"/><path style="stroke:none;stroke-width:1;stroke-dasharray:none;stroke-linecap:butt;stroke-dashoffset:0;stroke-linejoin:miter;stroke-miterlimit:4;fill:#2f2e41;fill-rule:nonzero;opacity:1" vector-effect="non-scaling-stroke" d="M-31.66-95.32 4.38-84.05 2.33-4.86l44.49 94.68-52.3 5.5L-46.82-6.91l15.16-88.41z" transform="matrix(1.28 0 0 1.28 835.11 345.06)"/><path style="stroke:none;stroke-width:1;stroke-dasharray:none;stroke-linecap:butt;stroke-dashoffset:0;stroke-linejoin:miter;stroke-miterlimit:4;fill:#ffb8b8;fill-rule:nonzero;opacity:1" vector-effect="non-scaling-stroke" transform="matrix(1.28 0 0 1.28 -378.783 -180.88)" d="M976.176 510.513a11.513 11.513 0 0 0-.437-17.65l7.25-25.29-14.295-8.155-9.736 35.86a11.576 11.576 0 0 0 17.218 15.235Z"/><path style="stroke:none;stroke-width:1;stroke-dasharray:none;stroke-linecap:butt;stroke-dashoffset:0;stroke-linejoin:miter;stroke-miterlimit:4;fill:#2f2e41;fill-rule:nonzero;opacity:1" vector-effect="non-scaling-stroke" transform="matrix(1.28 0 0 1.28 -378.818 -181.126)" d="m931.905 329.234 21.323-1.85s19.144 20.022 23.499 35.525c4.355 15.502 9.07 64.005 9.07 64.005l-1.967 70.955-24.925-16.926-1.672-61.03Z"/><circle style="stroke:none;stroke-width:1;stroke-dasharray:none;stroke-linecap:butt;stroke-dashoffset:0;stroke-linejoin:miter;stroke-miterlimit:4;fill:#ffb8b8;fill-rule:nonzero;opacity:1" vector-effect="non-scaling-stroke" r="30.227" transform="matrix(.62 -1.13 1.13 .62 773.29 175.65)"/><path style="stroke:none;stroke-width:1;stroke-dasharray:none;stroke-linecap:butt;stroke-dashoffset:0;stroke-linejoin:miter;stroke-miterlimit:4;fill:#2f2e41;fill-rule:nonzero;opacity:1" vector-effect="non-scaling-stroke" transform="matrix(1.28 0 0 1.28 -379.019 -181.588)" d="M896.869 266.453c-3.966-.917-8.083.099-12.1.757-4.016.659-8.443.876-11.84-1.366-2.51-1.655-4.053-4.393-5.501-7.027a8.088 8.088 0 0 1-1.184-3.1c-.17-1.948 1.069-3.726 2.385-5.172 6.112-6.718 15.043-10.396 24.05-11.564a41.554 41.554 0 0 1 21.962 2.682c6.837 3 12.715 8.491 15.403 15.456a43.894 43.894 0 0 1 2.3 11.038 32.97 32.97 0 0 1 .156 8.36 35.832 35.832 0 0 1-1.62 6.055l-4.453 13.446a8.859 8.859 0 0 1-1.751 3.466 3.03 3.03 0 0 1-3.548.777c.357-1.46.411-2.978.16-4.46a3.764 3.764 0 0 0-2.97-2.995c-1.641-.174-3.043 1.098-4.6 1.646a5.66 5.66 0 0 1-7.035-3.818q-.064-.215-.11-.435c-.246-1.537.167-3.183-.416-4.627-.683-1.691-2.493-2.577-3.853-3.793a8.869 8.869 0 0 1-2.433-9.216c.364-1.12 1.392-1.628 1.186-2.914-.27-1.686-2.756-2.865-4.188-3.196Z"/><path style="stroke:none;stroke-width:1;stroke-dasharray:none;stroke-linecap:butt;stroke-dashoffset:0;stroke-linejoin:miter;stroke-miterlimit:4;fill:#fff;fill-rule:nonzero;opacity:1" vector-effect="non-scaling-stroke" transform="matrix(.91 0 0 1.02 -145.88 -137.027)" d="M560.817 394.225H179.205V155.5h381.612Z"/><path style="stroke:none;stroke-width:1;stroke-dasharray:none;stroke-linecap:butt;stroke-dashoffset:0;stroke-linejoin:miter;stroke-miterlimit:4;fill:#3f3d56;fill-rule:nonzero;opacity:1" vector-effect="non-scaling-stroke" transform="matrix(.9 0 0 1.03 -142.859 -139.766)" d="M560.817 394.225H179.205V155.5h381.612Zm-379.87-1.742h378.127v-235.24H180.947Z"/><path style="stroke:none;stroke-width:1;stroke-dasharray:none;stroke-linecap:butt;stroke-dashoffset:0;stroke-linejoin:miter;stroke-miterlimit:4;fill:#fff;fill-rule:nonzero;opacity:1" vector-effect="non-scaling-stroke" transform="matrix(1.28 0 0 1.28 -299.644 -301.493)" d="M514.204 724.869H296.39V486.143h217.815Z"/><path style="stroke:none;stroke-width:1;stroke-dasharray:none;stroke-linecap:butt;stroke-dashoffset:0;stroke-linejoin:miter;stroke-miterlimit:4;fill:#3f3d56;fill-rule:nonzero;opacity:1" vector-effect="non-scaling-stroke" transform="matrix(1.28 0 0 1.28 -299.644 -301.493)" d="M514.204 724.869H296.39V486.143h217.815Zm-216.072-1.743h214.33v-235.24h-214.33Z"/><rect style="stroke:none;stroke-width:1;stroke-dasharray:none;stroke-linecap:butt;stroke-dashoffset:0;stroke-linejoin:miter;stroke-miterlimit:4;fill:#3f3d56;fill-rule:nonzero;opacity:1" vector-effect="non-scaling-stroke" x="-22.653" y="-.918" rx="0" ry="0" width="45.306" height="1.837" transform="matrix(1.28 0 0 1.28 291.82 598.98)"/><rect style="stroke:none;stroke-width:1;stroke-dasharray:none;stroke-linecap:butt;stroke-dashoffset:0;stroke-linejoin:miter;stroke-miterlimit:4;fill:#3f3d56;fill-rule:nonzero;opacity:1" vector-effect="non-scaling-stroke" x="-22.653" y="-.918" rx="0" ry="0" width="45.306" height="1.837" transform="matrix(1.28 0 0 1.28 291.82 606.05)"/><rect style="stroke:none;stroke-width:1;stroke-dasharray:none;stroke-linecap:butt;stroke-dashoffset:0;stroke-linejoin:miter;stroke-miterlimit:4;fill:#3f3d56;fill-rule:nonzero;opacity:1" vector-effect="non-scaling-stroke" x="-22.653" y="-.918" rx="0" ry="0" width="45.306" height="1.837" transform="matrix(1.28 0 0 1.28 291.82 613.12)"/><path style="stroke:none;stroke-width:1;stroke-dasharray:none;stroke-linecap:butt;stroke-dashoffset:0;stroke-linejoin:miter;stroke-miterlimit:4;fill:#e6e6e6;fill-rule:nonzero;opacity:1" vector-effect="non-scaling-stroke" transform="matrix(1.28 0 0 1.28 -299.506 -301.528)" d="M405.297 528.835v19.168c23.258 0 44.225 14.01 53.126 35.497 8.9 21.488 3.98 46.22-12.465 62.667l13.553 13.553c21.928-21.927 28.488-54.905 16.62-83.555-11.867-28.65-39.824-47.33-70.834-47.33Z"/><path style="stroke:none;stroke-width:1;stroke-dasharray:none;stroke-linecap:butt;stroke-dashoffset:0;stroke-linejoin:miter;stroke-miterlimit:4;fill:#575a89;fill-rule:nonzero;opacity:1" vector-effect="non-scaling-stroke" transform="matrix(1.28 0 0 1.28 -299.629 -301.298)" d="m459.511 659.72-13.553-13.553c-20.332 20.335-52.561 22.52-75.451 5.115l-11.602 15.266c30.525 23.2 73.495 20.284 100.606-6.828Z"/><path style="stroke:none;stroke-width:1;stroke-dasharray:none;stroke-linecap:butt;stroke-dashoffset:0;stroke-linejoin:miter;stroke-miterlimit:4;fill:#6c63ff;fill-rule:nonzero;opacity:1" vector-effect="non-scaling-stroke" transform="matrix(1.28 0 0 1.28 -299.769 -301.513)" d="M347.794 605.506a57.503 57.503 0 0 1 57.503-57.503v-19.168c-32.912 0-62.152 21.004-72.66 52.194-10.506 31.189.065 65.605 26.268 85.519l11.602-15.266a57.403 57.403 0 0 1-22.713-45.776Z"/><path style="stroke:none;stroke-width:1;stroke-dasharray:none;stroke-linecap:butt;stroke-dashoffset:0;stroke-linejoin:miter;stroke-miterlimit:4;fill:#fff;fill-rule:nonzero;opacity:1" vector-effect="non-scaling-stroke" transform="matrix(1.28 0 0 1.28 -379.575 -180.97)" d="M836.57 576.755H618.755V338.029H836.57Z"/><path style="stroke:none;stroke-width:1;stroke-dasharray:none;stroke-linecap:butt;stroke-dashoffset:0;stroke-linejoin:miter;stroke-miterlimit:4;fill:#3f3d56;fill-rule:nonzero;opacity:1" vector-effect="non-scaling-stroke" transform="matrix(1.28 0 0 1.28 -379.575 -180.97)" d="M836.57 576.755H618.755V338.029H836.57Zm-216.072-1.743h214.33v-235.24h-214.33Z"/><rect style="stroke:none;stroke-width:1;stroke-dasharray:none;stroke-linecap:butt;stroke-dashoffset:0;stroke-linejoin:miter;stroke-miterlimit:4;fill:#575a89;fill-rule:nonzero;opacity:1" vector-effect="non-scaling-stroke" x="-19.603" y="-31.365" rx="0" ry="0" width="39.207" height="62.731" transform="matrix(1.28 0 0 1.28 477.48 478.84)"/><rect style="stroke:none;stroke-width:1;stroke-dasharray:none;stroke-linecap:butt;stroke-dashoffset:0;stroke-linejoin:miter;stroke-miterlimit:4;fill:#e6e6e6;fill-rule:nonzero;opacity:1" vector-effect="non-scaling-stroke" x="-19.603" y="-52.711" rx="0" ry="0" width="39.207" height="105.422" transform="matrix(1.28 0 0 1.28 550.15 451.44)"/><rect style="stroke:none;stroke-width:1;stroke-dasharray:none;stroke-linecap:butt;stroke-dashoffset:0;stroke-linejoin:miter;stroke-miterlimit:4;fill:#6c63ff;fill-rule:nonzero;opacity:1" vector-effect="non-scaling-stroke" x="-19.603" y="-77.542" rx="0" ry="0" width="39.207" height="155.084" transform="matrix(1.28 0 0 1.28 622.83 419.58)"/><path style="stroke:none;stroke-width:1;stroke-dasharray:none;stroke-linecap:butt;stroke-dashoffset:0;stroke-linejoin:miter;stroke-miterlimit:4;fill:#3f3d56;fill-rule:nonzero;opacity:1" vector-effect="non-scaling-stroke" d="M88 91.05H-88v-182.1h1.74V89.3H88v1.75z" transform="matrix(1.28 0 0 1.28 551.83 404.49)"/><circle style="stroke:none;stroke-width:1;stroke-dasharray:none;stroke-linecap:butt;stroke-dashoffset:0;stroke-linejoin:miter;stroke-miterlimit:4;fill:#ffb8b8;fill-rule:nonzero;opacity:1" vector-effect="non-scaling-stroke" r="12" transform="matrix(1.28 0 0 1.28 610.3 244.07)"/><path style="stroke:none;stroke-width:1;stroke-dasharray:none;stroke-linecap:butt;stroke-dashoffset:0;stroke-linejoin:miter;stroke-miterlimit:4;fill:#3f3d56;fill-rule:nonzero;opacity:1" vector-effect="non-scaling-stroke" transform="matrix(.97 0 0 1.28 -169.83 -210.566)" d="M507.82 344.299H232.202a.863.863 0 0 1-.863-.863V211.332a.863.863 0 0 1 1.725 0v131.241H507.82a.863.863 0 1 1 0 1.726Z"/><path style="stroke:none;stroke-width:1;stroke-dasharray:none;stroke-linecap:butt;stroke-dashoffset:0;stroke-linejoin:miter;stroke-miterlimit:4;fill:#6c63ff;fill-rule:nonzero;opacity:1" vector-effect="non-scaling-stroke" transform="matrix(1.28 0 0 1.28 -268.054 -210.442)" d="M291.09 334.81h-25.07a2.563 2.563 0 0 1-2.56-2.56v-34.557a2.563 2.563 0 0 1 2.56-2.56h25.07a2.563 2.563 0 0 1 2.56 2.56v34.557a2.563 2.563 0 0 1-2.56 2.56Z"/><path style="stroke:none;stroke-width:1;stroke-dasharray:none;stroke-linecap:butt;stroke-dashoffset:0;stroke-linejoin:miter;stroke-miterlimit:4;fill:#6c63ff;fill-rule:nonzero;opacity:1" vector-effect="non-scaling-stroke" transform="matrix(1.28 0 0 1.28 -267.906 -210.492)" d="M336.805 334.81h-25.069a2.563 2.563 0 0 1-2.56-2.56v-67.334a2.563 2.563 0 0 1 2.56-2.56h25.069a2.563 2.563 0 0 1 2.56 2.56v67.334a2.563 2.563 0 0 1-2.56 2.56Z"/><path style="stroke:none;stroke-width:1;stroke-dasharray:none;stroke-linecap:butt;stroke-dashoffset:0;stroke-linejoin:miter;stroke-miterlimit:4;fill:#6c63ff;fill-rule:nonzero;opacity:1" vector-effect="non-scaling-stroke" transform="matrix(1.28 0 0 1.28 -267.757 -210.442)" d="M382.52 334.81h-25.068a2.563 2.563 0 0 1-2.56-2.56v-34.557a2.563 2.563 0 0 1 2.56-2.56h25.069a2.563 2.563 0 0 1 2.56 2.56v34.557a2.563 2.563 0 0 1-2.56 2.56Z"/><path style="stroke:none;stroke-width:1;stroke-dasharray:none;stroke-linecap:butt;stroke-dashoffset:0;stroke-linejoin:miter;stroke-miterlimit:4;fill:#6c63ff;fill-rule:nonzero;opacity:1" vector-effect="non-scaling-stroke" transform="matrix(1.28 0 0 1.28 -267.606 -210.51)" d="M428.236 334.81h-25.068a2.507 2.507 0 0 1-2.56-2.444v-80.505a2.507 2.507 0 0 1 2.56-2.444h25.068a2.507 2.507 0 0 1 2.56 2.444v80.505a2.507 2.507 0 0 1-2.56 2.444Z"/><circle style="stroke:none;stroke-width:1;stroke-dasharray:none;stroke-linecap:butt;stroke-dashoffset:0;stroke-linejoin:miter;stroke-miterlimit:4;fill:#3f3d56;fill-rule:nonzero;opacity:1" vector-effect="non-scaling-stroke" r="5.175" transform="matrix(1.28 0 0 1.28 88.49 147.34)"/><circle style="stroke:none;stroke-width:1;stroke-dasharray:none;stroke-linecap:butt;stroke-dashoffset:0;stroke-linejoin:miter;stroke-miterlimit:4;fill:#3f3d56;fill-rule:nonzero;opacity:1" vector-effect="non-scaling-stroke" r="5.175" transform="matrix(1.28 0 0 1.28 147.16 104.17)"/><circle style="stroke:none;stroke-width:1;stroke-dasharray:none;stroke-linecap:butt;stroke-dashoffset:0;stroke-linejoin:miter;stroke-miterlimit:4;fill:#3f3d56;fill-rule:nonzero;opacity:1" vector-effect="non-scaling-stroke" r="5.175" transform="matrix(1.28 0 0 1.28 205.83 147.34)"/><circle style="stroke:none;stroke-width:1;stroke-dasharray:none;stroke-linecap:butt;stroke-dashoffset:0;stroke-linejoin:miter;stroke-miterlimit:4;fill:#3f3d56;fill-rule:nonzero;opacity:1" vector-effect="non-scaling-stroke" r="5.175" transform="matrix(1.28 0 0 1.28 264.49 83.14)"/><circle style="stroke:none;stroke-width:1;stroke-dasharray:none;stroke-linecap:butt;stroke-dashoffset:0;stroke-linejoin:miter;stroke-miterlimit:4;fill:#3f3d56;fill-rule:nonzero;opacity:1" vector-effect="non-scaling-stroke" r="5.175" transform="matrix(1.28 0 0 1.28 323.16 58.78)"/><path style="stroke:none;stroke-width:1;stroke-dasharray:none;stroke-linecap:butt;stroke-dashoffset:0;stroke-linejoin:miter;stroke-miterlimit:4;fill:#3f3d56;fill-rule:nonzero;opacity:1" vector-effect="non-scaling-stroke" d="M.21 35.2-45.62.88l-45.2 33.85-1.03-1.38 46.23-34.63L-.01 32.88l45.32-49.59.18-.07L91.21-35.2l.64 1.6-45.53 18.34L.21 35.2z" transform="matrix(1.28 0 0 1.28 205.7 103.65)"/></svg>
